# File produced by Open Asset Import Library (http://www.assimp.sf.net)
# (assimp v3.1.193236683)

mtllib book_blank_1.mtl

# 40 vertex positions
v  -4.64074 2.92304 4.64898
v  3.64861 2.92304 4.64898
v  -4.64074 3.16315 4.88665
v  3.64861 3.16315 4.88665
v  -4.64074 4.4172 4.64898
v  3.64861 4.4172 4.64898
v  -4.64074 4.4172 -1.26989
v  3.64861 4.4172 -1.26989
v  -4.50271 4.31587 -1.17545
v  3.51058 4.31587 -1.17545
v  -4.64074 2.92304 -1.26989
v  3.64861 2.92304 -1.26989
v  -4.64074 3.67012 4.97873
v  3.64861 3.67012 4.97873
v  -4.64074 4.17708 4.88665
v  3.64861 4.17708 4.88665
v  -4.50271 3.02437 -1.17545
v  3.51058 3.02437 -1.17545
v  3.56901 3.0007 -0.998453
v  3.56901 3.0007 4.62201
v  3.56901 2.97449 -1.03979
v  3.56901 4.33954 -0.998453
v  3.56901 4.36575 -1.03979
v  3.56901 4.33954 4.62201
v  3.56901 4.15963 4.78163
v  3.56901 3.67012 4.87596
v  3.56901 3.18061 4.78163
v  -4.56114 3.0007 -0.998453
v  -4.56114 3.0007 4.62201
v  -4.56114 3.18061 4.78163
v  -4.56114 3.67012 4.87596
v  -4.56114 4.15963 4.78163
v  -4.56114 4.33954 4.62201
v  -4.56114 4.33954 -0.998453
v  -4.56114 4.36575 -1.03979
v  -4.56114 2.97449 -1.03979
v  3.56901 3.67012 -0.78988
v  -4.56114 3.67012 -0.78988
v  -4.50271 3.67012 -0.964567
v  3.51058 3.67012 -0.964567

# 55 UV coordinates
vt 0.504539 0.286064 0
vt 0.504539 0.805221 0
vt 0.488958 0.286064 0
vt 0.488958 0.805221 0
vt 0.442215 0.286064 0
vt 0.442215 0.805221 0
vt 0.0731931 0.286064 0
vt 0.0731931 0.805221 0
vt 0.97633 0.303788 0
vt 0.97633 0.796299 0
vt 0.965026 0.303789 0
vt 0.965025 0.796299 0
vt 0.867673 0.286064 0
vt 0.867673 0.805221 0
vt 0.473377 0.286064 0
vt 0.473377 0.805221 0
vt 0.457797 0.286064 0
vt 0.457797 0.805221 0
vt 0.907893 0.303789 0
vt 0.907893 0.796299 0
vt 0.896589 0.303789 0
vt 0.896589 0.796299 0
vt 0.858805 0.172334 0
vt 0.837069 0.177989 0
vt 0.464876 0.169561 0
vt 0.471948 0.177988 0
vt 0.844192 0.182215 0
vt 0.838733 0.176646 0
vt 0.858805 0.252274 0
vt 0.836732 0.24662 0
vt 0.843854 0.242393 0
vt 0.838396 0.247963 0
vt 0.464876 0.255047 0
vt 0.471948 0.24662 0
vt 0.45491 0.241309 0
vt 0.461868 0.237397 0
vt 0.450888 0.212304 0
vt 0.458287 0.212304 0
vt 0.454794 0.183299 0
vt 0.461868 0.187211 0
vt 0.464876 0.255047 0
vt 0.836732 0.24662 0
vt 0.454678 0.241309 0
vt 0.461868 0.237397 0
vt 0.458287 0.212304 0
vt 0.844192 0.182215 0
vt 0.838733 0.176646 0
vt 0.843854 0.242393 0
vt 0.838396 0.247963 0
vt 0.828002 0.212304 0
vt 0.828002 0.212304 0
vt 0.938145 0.303789 0
vt 0.938145 0.796299 0
vt 0.835031 0.212304 0
vt 0.835031 0.212304 0

# 52 vertex normals
vn 0 -0.68294 0.730474
vn 0 -0.384802 0.922999
vn 0 1 0
vn 0 -0.900443 -0.434974
vn 0 -0.613812 -0.789452
vn 0 -1 0
vn 0 0 1
vn 0 0.384802 0.922999
vn 0 0.682941 0.730474
vn 0 0.613812 -0.789452
vn 0 0.900443 -0.434974
vn 0.570148 0.821542 -0.000131845
vn 0.983273 0.182137 -2.58726e-05
vn 0.575284 0.817904 -0.00908223
vn 0.985311 0.17051 -0.00944371
vn 0.927801 0.194441 -0.318398
vn 0.999702 0.0204822 -0.0132879
vn 0.570148 -0.821542 -0.000131831
vn 0.983273 -0.182138 -2.58699e-05
vn 0.927801 -0.194441 -0.318399
vn 0.999702 -0.0204828 -0.0132883
vn 0.575284 -0.817903 -0.0090822
vn 0.985311 -0.17051 -0.00944369
vn 0.74324 -0.348609 -0.571022
vn 0.999883 -0.00400076 -0.0147398
vn 0.758005 -2.26046e-08 -0.652249
vn 0.999862 -5.59372e-10 -0.0166362
vn 0.74324 0.348609 -0.571022
vn 0.999883 0.00400076 -0.0147398
vn -0.570148 0.821542 -0.000131846
vn -0.575283 0.817904 -0.00908222
vn -0.983273 0.182137 -2.58726e-05
vn -0.985311 0.17051 -0.00944371
vn -0.74324 0.348609 -0.571022
vn -0.999883 0.00400055 -0.0147398
vn -0.758005 0 -0.652249
vn -0.999862 -2.035e-07 -0.0166362
vn -0.74324 -0.34861 -0.571022
vn -0.999883 -0.00400096 -0.0147398
vn -0.575284 -0.817903 -0.00908222
vn -0.985311 -0.17051 -0.0094437
vn -0.570149 -0.821541 -0.000131831
vn -0.983273 -0.182137 -2.58698e-05
vn -0.927801 -0.194441 -0.318399
vn -0.999702 -0.020483 -0.0132883
vn -0.927801 0.194441 -0.318398
vn -0.999702 0.020482 -0.0132879
vn 0.999987 2.98032e-09 -0.00506807
vn -0.999987 -2.07705e-07 -0.00506807
vn 0 0 -1
vn 0.941831 1.9805e-07 -0.336087
vn -0.941831 -1.9805e-07 -0.336087

# Mesh 'Book2:pCube1_pCube1_Book2:pCube1_pCube1' with 48 faces
g Book2:pCube1_pCube1_Book2:pCube1_pCube1
usemtl BookBlankNew1_Cover
f  1/1/1 2/2/1 3/3/2
f  3/3/2 2/2/1 4/4/2
f  5/5/3 6/6/3 7/7/3
f  7/7/3 6/6/3 8/8/3
f  7/9/4 8/10/4 9/11/5
f  9/11/5 8/10/4 10/12/5
f  11/13/6 12/14/6 1/1/6
f  1/1/6 12/14/6 2/2/6
f  13/15/7 14/16/7 15/17/8
f  15/17/8 14/16/7 16/18/8
f  15/17/8 16/18/8 5/5/9
f  5/5/9 16/18/8 6/6/9
f  3/3/2 4/4/2 13/15/7
f  13/15/7 4/4/2 14/16/7
f  17/19/10 18/20/10 11/21/11
f  11/21/11 18/20/10 12/22/11
f  12/23/12 19/24/13 2/25/14
f  2/25/14 19/24/13 20/26/15
f  12/23/12 18/27/16 19/24/13
f  18/27/16 21/28/17 19/24/13
f  8/29/18 22/30/19 10/31/20
f  10/31/20 22/30/19 23/32/21
f  8/29/18 6/33/22 22/30/19
f  22/30/19 6/33/22 24/34/23
f  6/33/22 16/35/24 24/34/23
f  24/34/23 16/35/24 25/36/25
f  16/35/24 14/37/26 25/36/25
f  25/36/25 14/37/26 26/38/27
f  4/39/28 27/40/29 14/37/26
f  14/37/26 27/40/29 26/38/27
f  2/25/14 20/26/15 4/39/28
f  4/39/28 20/26/15 27/40/29
f  11/29/30 1/41/31 28/42/32
f  28/42/32 1/41/31 29/34/33
f  1/41/31 3/43/34 29/34/33
f  29/34/33 3/43/34 30/44/35
f  3/43/34 13/37/36 30/44/35
f  30/44/35 13/37/36 31/45/37
f  15/39/38 32/40/39 13/37/36
f  13/37/36 32/40/39 31/45/37
f  5/25/40 33/26/41 15/39/38
f  15/39/38 33/26/41 32/40/39
f  7/23/42 34/24/43 5/25/40
f  5/25/40 34/24/43 33/26/41
f  7/23/42 9/46/44 34/24/43
f  9/46/44 35/47/45 34/24/43
f  11/29/30 28/42/32 17/48/46
f  17/48/46 28/42/32 36/49/47

# Mesh 'Book2:pCube1_pCube1_Book2:pCube1_pCube1' with 28 faces
g Book2:pCube1_pCube1_Book2:pCube1_pCube1
usemtl lambert8
f  21/28/17 37/50/48 19/24/13
f  23/32/21 22/30/19 37/50/48
f  19/24/13 37/50/48 20/26/15
f  20/26/15 37/50/48 27/40/29
f  27/40/29 37/50/48 26/38/27
f  22/30/19 24/34/23 37/50/48
f  24/34/23 25/36/25 37/50/48
f  37/50/48 25/36/25 26/38/27
f  35/47/45 38/51/49 34/24/43
f  36/49/47 28/42/32 38/51/49
f  28/42/32 29/34/33 38/51/49
f  29/34/33 30/44/35 38/51/49
f  30/44/35 31/45/37 38/51/49
f  31/45/37 32/40/39 38/51/49
f  34/24/43 38/51/49 33/26/41
f  32/40/39 33/26/41 38/51/49
f  39/52/50 40/53/50 17/19/10
f  17/19/10 40/53/50 18/20/10
f  9/11/5 10/12/5 39/52/50
f  39/52/50 10/12/5 40/53/50
f  40/54/51 37/50/48 18/27/16
f  18/27/16 37/50/48 21/28/17
f  40/54/51 10/31/20 37/50/48
f  37/50/48 10/31/20 23/32/21
f  39/55/52 38/51/49 9/46/44
f  9/46/44 38/51/49 35/47/45
f  39/55/52 17/48/46 38/51/49
f  38/51/49 17/48/46 36/49/47

