# File produced by Open Asset Import Library (http://www.assimp.sf.net)
# (assimp v3.1.193236683)

mtllib Book132.mtl

# 30 vertex positions
v  -4.79773 3.50353 4.96671
v  -4.79773 3.42463 4.90465
v  4.79773 3.42463 4.90465
v  4.79773 3.50353 4.96671
v  -4.79773 3.91561 -1.56478
v  -4.79773 3.91561 4.90465
v  4.79773 3.91561 4.90465
v  4.79773 3.91561 -1.56478
v  -4.56114 3.87107 -1.41503
v  4.56114 3.87107 -1.41503
v  -4.79773 3.42463 -1.56478
v  4.79773 3.42463 -1.56478
v  4.56114 3.526 4.92849
v  4.56114 3.47303 4.88896
v  4.56114 3.46917 -1.41503
v  4.56114 3.67012 -1.29422
v  4.56114 3.86721 4.88896
v  4.56114 3.81424 4.92849
v  4.56114 3.67012 4.95185
v  -4.56114 3.67012 -1.29422
v  -4.56114 3.46917 -1.41503
v  -4.56114 3.47303 4.88896
v  -4.56114 3.526 4.92849
v  -4.56114 3.67012 4.95185
v  -4.56114 3.81424 4.92849
v  -4.56114 3.86721 4.88896
v  -4.79773 3.83671 4.96671
v  -4.79773 3.67012 4.99075
v  4.79773 3.67012 4.99075
v  4.79773 3.83671 4.96671

# 54 UV coordinates
vt 0.493429 0.333999 0
vt 0.507698 0.333999 0
vt 0.507698 0.988275 0
vt 0.493429 0.988275 0
vt 0.0209042 0.333999 0
vt 0.450621 0.333999 0
vt 0.450621 0.988275 0
vt 0.0209042 0.988275 0
vt 0.718048 0.142578 0
vt 0.723254 0.158941 0
vt 0.0730768 0.158941 0
vt 0.0744355 0.142764 0
vt 0.942569 0.333999 0
vt 0.942569 0.988275 0
vt 0.440426 0.288449 0
vt 0.432402 0.301993 0
vt 0.0639094 0.29935 0
vt 0.064963 0.251823 0
vt 0.0639246 0.203975 0
vt 0.442714 0.201201 0
vt 0.450737 0.214745 0
vt 0.455478 0.251597 0
vt 0.908776 0.245006 0
vt 0.909868 0.295698 0
vt 0.53591 0.29588 0
vt 0.527816 0.282142 0
vt 0.516136 0.244764 0
vt 0.530575 0.207386 0
vt 0.540508 0.193648 0
vt 0.909898 0.193971 0
vt 0.46489 0.333999 0
vt 0.47916 0.333999 0
vt 0.479159 0.988275 0
vt 0.46489 0.988275 0
vt 0.718998 0.0519659 0
vt 0.723273 0.0978126 0
vt 0.0699385 0.0975923 0
vt 0.0720924 0.0514406 0
vt 0.723254 0.0364284 0
vt 0.073077 0.0364282 0
vt 0.441235 0.31437 0
vt 0.0621114 0.31129 0
vt 0.0621114 0.191903 0
vt 0.451547 0.188824 0
vt 0.46414 0.209 0
vt 0.469019 0.251597 0
vt 0.453829 0.294194 0
vt 0.911681 0.308433 0
vt 0.527 0.308433 0
vt 0.514294 0.287969 0
vt 0.502475 0.244764 0
vt 0.517053 0.201559 0
vt 0.531598 0.181095 0
vt 0.911681 0.181095 0

# 42 vertex normals
vn 0 -0.330944 0.94365
vn 0 -0.618191 0.786028
vn 0 1 0
vn 0 -0.762908 -0.646508
vn 0 -0.958493 -0.285115
vn 0 -1 0
vn 0.999906 0.00267803 -0.0134502
vn 0.882523 0.470185 -0.00891913
vn 0.854458 0.51952 -0.000156926
vn 1 0 0
vn 0.854458 -0.519521 -0.000156926
vn 0.882522 -0.470186 -0.00891911
vn 0.999906 -0.00267803 -0.0134502
vn 0.999891 -2.30751e-09 -0.0147435
vn -1 5.14127e-07 0
vn -0.854458 0.519521 -0.000156926
vn -0.882522 0.470186 -0.00891912
vn -0.999906 0.00267854 -0.0134502
vn -0.999891 5.15173e-07 -0.0147434
vn -0.999906 -0.00267751 -0.0134502
vn -0.882522 -0.470186 -0.00891912
vn -0.854458 -0.51952 -0.000156926
vn 0 0.330944 0.94365
vn 0 0 1
vn 0 0.618191 0.786028
vn 0 0.762908 -0.646507
vn 0 -6.5516e-07 -1
vn 0 0.958494 -0.285114
vn 0.192789 0.981238 -0.00193213
vn 0.192666 0.981264 -0.0002964
vn 0.192666 -0.981264 -0.000296399
vn 0.192788 -0.981238 -0.00193212
vn 0.179645 -0.493065 -0.851243
vn 0.167805 -1.54542e-07 -0.98582
vn 0.179645 0.493065 -0.851243
vn -0.192666 0.981264 -0.000296399
vn -0.192789 0.981238 -0.00193213
vn -0.179646 0.493065 -0.851243
vn -0.167805 1.54542e-07 -0.98582
vn -0.179645 -0.493065 -0.851243
vn -0.192788 -0.981238 -0.00193212
vn -0.192666 -0.981264 -0.000296399

# Mesh 'pCube1_pCube1' with 56 faces
g pCube1_pCube1
usemtl lambert5
f  1/1/1 2/2/2 3/3/2
f  3/3/2 4/4/1 1/1/1
f  5/5/3 6/6/3 7/7/3
f  7/7/3 8/8/3 5/5/3
f  9/9/4 5/10/5 8/11/5
f  8/11/5 10/12/4 9/9/4
f  2/2/6 11/13/6 12/14/6
f  12/14/6 3/3/6 2/2/6
f  13/15/7 14/16/8 15/17/9
f  13/15/7 15/17/9 16/18/10
f  13/15/7 16/18/10 10/19/11
f  13/15/7 10/19/11 17/20/12
f  13/15/7 17/20/12 18/21/13
f  18/21/13 19/22/14 13/15/7
f  20/23/15 21/24/16 22/25/17
f  20/23/15 22/25/17 23/26/18
f  20/23/15 23/26/18 24/27/19
f  20/23/15 24/27/19 25/28/20
f  20/23/15 25/28/20 26/29/21
f  26/29/21 9/30/22 20/23/15
f  27/31/23 28/32/24 29/33/24
f  29/33/24 30/34/23 27/31/23
f  6/6/25 27/31/23 30/34/23
f  30/34/23 7/7/25 6/6/25
f  28/32/24 1/1/1 4/4/1
f  4/4/1 29/33/24 28/32/24
f  21/35/26 20/36/27 16/37/27
f  16/37/27 15/38/26 21/35/26
f  20/36/27 9/9/4 10/12/4
f  10/12/4 16/37/27 20/36/27
f  11/39/28 21/35/26 15/38/26
f  15/38/26 12/40/28 11/39/28
f  14/16/8 3/41/29 12/42/30
f  12/42/30 15/17/9 14/16/8
f  10/19/11 8/43/31 7/44/32
f  7/44/32 17/20/12 10/19/11
f  17/20/12 7/44/32 30/45/33
f  30/45/33 18/21/13 17/20/12
f  18/21/13 30/45/33 29/46/34
f  29/46/34 19/22/14 18/21/13
f  19/22/14 29/46/34 4/47/35
f  4/47/35 13/15/7 19/22/14
f  13/15/7 4/47/35 3/41/29
f  3/41/29 14/16/8 13/15/7
f  21/24/16 11/48/36 2/49/37
f  2/49/37 22/25/17 21/24/16
f  22/25/17 2/49/37 1/50/38
f  1/50/38 23/26/18 22/25/17
f  23/26/18 1/50/38 28/51/39
f  28/51/39 24/27/19 23/26/18
f  24/27/19 28/51/39 27/52/40
f  27/52/40 25/28/20 24/27/19
f  25/28/20 27/52/40 6/53/41
f  6/53/41 26/29/21 25/28/20
f  26/29/21 6/53/41 5/54/42
f  5/54/42 9/30/22 26/29/21

