# File produced by Open Asset Import Library (http://www.assimp.sf.net)
# (assimp v3.1.193236683)

mtllib book13.mtl

# 30 vertex positions
v  -4.79773 2.95081 4.79773
v  3.17568 2.95081 4.79773
v  -4.79773 3.182 5.04829
v  3.17568 3.182 5.04829
v  -4.79773 4.38943 4.79773
v  3.17568 4.38943 4.79773
v  -4.79773 4.38943 0.665962
v  3.17568 4.38943 0.665962
v  -4.56114 4.25891 0.815709
v  2.9391 4.25891 0.815709
v  -4.79773 2.95081 0.665962
v  3.17568 2.95081 0.665962
v  2.9391 3.08132 0.81571
v  2.9391 3.67012 0.936522
v  2.9391 3.09263 4.73435
v  2.9391 3.24783 4.89398
v  2.9391 3.67012 4.9883
v  2.9391 4.24761 4.73435
v  2.9391 4.0924 4.89398
v  -4.56114 3.08132 0.81571
v  -4.56114 3.09263 4.73435
v  -4.56114 3.67012 0.936522
v  -4.56114 3.24783 4.89398
v  -4.56114 3.67012 4.9883
v  -4.56114 4.0924 4.89398
v  -4.56114 4.24761 4.73435
v  -4.79773 3.67012 5.14536
v  3.17568 3.67012 5.14536
v  -4.79773 4.15824 5.04829
v  3.17568 4.15824 5.04829

# 54 UV coordinates
vt 0.500955 0.26743 0
vt 0.500955 0.973463 0
vt 0.469578 0.26743 0
vt 0.469578 0.973463 0
vt 0.375445 0.26743 0
vt 0.375445 0.973463 0
vt 0.0209042 0.26743 0
vt 0.0209042 0.973463 0
vt 0.981485 0.125805 0
vt 0.981484 0.92274 0
vt 0.964876 0.132187 0
vt 0.965065 0.921075 0
vt 0.843445 0.26743 0
vt 0.843445 0.973463 0
vt 0.596143 0.101474 0
vt 0.594937 0.158668 0
vt 0.0893678 0.101269 0
vt 0.0801863 0.116768 0
vt 0.0747608 0.15894 0
vt 0.596126 0.216248 0
vt 0.0893675 0.216612 0
vt 0.0801863 0.201112 0
vt 0.596001 0.215508 0
vt 0.089194 0.215717 0
vt 0.594744 0.157141 0
vt 0.0798744 0.199899 0
vt 0.0743671 0.156862 0
vt 0.0798744 0.113826 0
vt 0.596035 0.0983795 0
vt 0.089194 0.0980082 0
vt 0.4382 0.26743 0
vt 0.4382 0.973463 0
vt 0.406823 0.26743 0
vt 0.406823 0.973463 0
vt 0.91944 0.125782 0
vt 0.919217 0.926587 0
vt 0.872907 0.131022 0
vt 0.872374 0.923947 0
vt 0.857137 0.125805 0
vt 0.857137 0.92274 0
vt 0.598201 0.0871058 0
vt 0.0792599 0.0871057 0
vt 0.598201 0.230775 0
vt 0.0792599 0.230775 0
vt 0.0648483 0.207687 0
vt 0.0592655 0.15894 0
vt 0.0648483 0.110194 0
vt 0.598088 0.23017 0
vt 0.0789341 0.23017 0
vt 0.0643054 0.206609 0
vt 0.0586381 0.156862 0
vt 0.0643054 0.107116 0
vt 0.0789341 0.0835547 0
vt 0.598088 0.0835546 0

# 46 vertex normals
vn 0 -0.734937 0.678135
vn 0 -0.435125 0.90037
vn 0 1 0
vn 0 -0.753851 -0.657046
vn 0 -0.753851 -0.657046
vn 0 -0.374256 -0.927325
vn 0 -0.374256 -0.927325
vn 0 -1 0
vn 0.979427 0.201799 -0.000283387
vn 1 2.8288e-07 0
vn 0.983685 0.179357 -0.0139929
vn 0.999756 0.00624758 -0.0211648
vn 0.999728 2.78814e-07 -0.0233102
vn 0.979427 -0.201799 -0.000283384
vn 0.983685 -0.179357 -0.0139929
vn 0.999756 -0.00624702 -0.0211648
vn -0.979427 0.201799 -0.000283387
vn -0.983685 0.179357 -0.0139929
vn -1 -1.82503e-08 0
vn -0.999756 0.0062473 -0.0211648
vn -0.999728 -1.8612e-08 -0.0233103
vn -0.999756 -0.00624733 -0.0211648
vn -0.979427 -0.201799 -0.000283387
vn -0.983685 -0.179357 -0.0139929
vn 0 0 1
vn 0 0.435125 0.90037
vn 0 0.734938 0.678135
vn 0 -2.41051e-07 -1
vn 0 0.374256 -0.927325
vn 0 0.374257 -0.927325
vn 0 0.753851 -0.657045
vn 0 0.753851 -0.657045
vn 0.498667 0.866793 -0.00121724
vn 0.500789 0.865508 -0.0102796
vn 0.498666 -0.866793 -0.00121723
vn 0.500789 -0.865509 -0.0102796
vn 0.556809 -0.500715 -0.662758
vn 0.566407 6.59642e-09 -0.824126
vn 0.556809 0.500715 -0.662758
vn -0.498666 0.866793 -0.00121724
vn -0.500788 0.865509 -0.0102796
vn -0.556808 0.500715 -0.662759
vn -0.566406 -2.63857e-08 -0.824126
vn -0.556809 -0.500715 -0.662758
vn -0.500789 -0.865508 -0.0102796
vn -0.498666 -0.866793 -0.00121724

# Mesh 'pCube1_pCube1' with 56 faces
g pCube1_pCube1
usemtl Book13
f  1/1/1 2/2/1 3/3/2
f  3/3/2 2/2/1 4/4/2
f  5/5/3 6/6/3 7/7/3
f  7/7/3 6/6/3 8/8/3
f  7/9/4 8/10/5 9/11/6
f  9/11/6 8/10/5 10/12/7
f  11/13/8 12/14/8 1/1/8
f  1/1/8 12/14/8 2/2/8
f  13/15/9 14/16/10 15/17/11
f  15/17/11 14/16/10 16/18/12
f  16/18/12 14/16/10 17/19/13
f  10/20/14 18/21/15 14/16/10
f  18/21/15 19/22/16 14/16/10
f  14/16/10 19/22/16 17/19/13
f  20/23/17 21/24/18 22/25/19
f  21/24/18 23/26/20 22/25/19
f  23/26/20 24/27/21 22/25/19
f  24/27/21 25/28/22 22/25/19
f  9/29/23 22/25/19 26/30/24
f  25/28/22 26/30/24 22/25/19
f  27/31/25 28/32/25 29/33/26
f  29/33/26 28/32/25 30/34/26
f  29/33/26 30/34/26 5/5/27
f  5/5/27 30/34/26 6/6/27
f  3/3/2 4/4/2 27/31/25
f  27/31/25 4/4/2 28/32/25
f  22/35/28 14/36/28 20/37/29
f  20/37/29 14/36/28 13/38/30
f  9/11/6 10/12/7 22/35/28
f  22/35/28 10/12/7 14/36/28
f  20/37/29 13/38/30 11/39/31
f  11/39/31 13/38/30 12/40/32
f  12/41/33 13/15/9 2/42/34
f  2/42/34 13/15/9 15/17/11
f  8/43/35 6/44/36 10/20/14
f  10/20/14 6/44/36 18/21/15
f  6/44/36 30/45/37 18/21/15
f  18/21/15 30/45/37 19/22/16
f  30/45/37 28/46/38 19/22/16
f  19/22/16 28/46/38 17/19/13
f  4/47/39 16/18/12 28/46/38
f  28/46/38 16/18/12 17/19/13
f  2/42/34 15/17/11 4/47/39
f  4/47/39 15/17/11 16/18/12
f  11/48/40 1/49/41 20/23/17
f  20/23/17 1/49/41 21/24/18
f  1/49/41 3/50/42 21/24/18
f  21/24/18 3/50/42 23/26/20
f  3/50/42 27/51/43 23/26/20
f  23/26/20 27/51/43 24/27/21
f  29/52/44 25/28/22 27/51/43
f  27/51/43 25/28/22 24/27/21
f  5/53/45 26/30/24 29/52/44
f  29/52/44 26/30/24 25/28/22
f  7/54/46 9/29/23 5/53/45
f  5/53/45 9/29/23 26/30/24

