# File produced by Open Asset Import Library (http://www.assimp.sf.net)
# (assimp v3.1.193236683)

mtllib Circle Benches.mtl

# 132 vertex positions
v  2.6603 0.228498 -1.52244
v  2.66031 0.816641 -1.52244
v  2.15295 0.228498 -1.73259
v  2.15296 0.816641 -1.73259
v  1.62923 0.228498 -1.89772
v  1.62922 0.816641 -1.89772
v  1.0931 0.228498 -2.0166
v  1.09309 0.816641 -2.01658
v  0.548645 0.228498 -2.08827
v  0.548632 0.816641 -2.08826
v  1.29568e-05 0.228498 -2.11222
v  1.1725e-06 0.816641 -2.11221
v  -0.548616 0.228498 -2.08823
v  -0.548629 0.816641 -2.08826
v  -1.09307 0.228498 -2.01663
v  -1.09308 0.816641 -2.01658
v  -1.62921 0.228498 -1.89771
v  -1.62922 0.816641 -1.89772
v  -2.15296 0.228498 -1.73256
v  -2.15296 0.816641 -1.73259
v  -2.66032 0.228498 -1.52247
v  -2.66031 0.816641 -1.52244
v  2.68985 0.228498 -1.59461
v  2.17687 0.228498 -1.80476
v  2.68987 0.816641 -1.59461
v  2.17688 0.816641 -1.80476
v  1.64733 0.228498 -1.96989
v  1.64732 0.816641 -1.96989
v  1.10525 0.228498 -2.08877
v  1.10523 0.816641 -2.08875
v  0.554741 0.228498 -2.16044
v  0.554728 0.816641 -2.16043
v  1.31471e-05 0.228498 -2.18439
v  1.23189e-06 0.816641 -2.18438
v  -0.554712 0.228498 -2.1604
v  -0.554725 0.816641 -2.16043
v  -1.10521 0.228498 -2.0888
v  -1.10523 0.816641 -2.08875
v  -1.64731 0.228498 -1.96988
v  -1.64732 0.816641 -1.96989
v  -2.17688 0.228498 -1.80473
v  -2.17688 0.816641 -1.80476
v  -2.68988 0.228498 -1.59464
v  -2.68987 0.816641 -1.59461
v  2.17688 0.958203 -1.80476
v  2.15296 0.958203 -1.73259
v  2.68987 0.958203 -1.59461
v  2.66031 0.958203 -1.52244
v  1.64732 0.958203 -1.96989
v  1.62922 0.958203 -1.89772
v  1.10523 0.958203 -2.08875
v  1.09309 0.958203 -2.01658
v  0.554728 0.958203 -2.16043
v  0.548632 0.958203 -2.08826
v  1.23189e-06 0.958203 -2.18438
v  1.1725e-06 0.958203 -2.11221
v  -0.554725 0.958203 -2.16043
v  -0.548629 0.958203 -2.08826
v  -1.09308 0.958203 -2.01658
v  -1.10523 0.958203 -2.08875
v  -1.62922 0.993431 -1.89772
v  -1.64732 0.993431 -1.96989
v  -2.15296 1.03376 -1.73259
v  -2.17688 1.03376 -1.80476
v  -2.66031 1.03376 -1.52244
v  -2.68987 1.03376 -1.59461
v  2.15296 0.920275 -1.73259
v  2.66031 0.920275 -1.52244
v  2.68987 0.920275 -1.59461
v  2.17688 0.920275 -1.80476
v  1.62922 0.920275 -1.89772
v  1.64732 0.920275 -1.96989
v  1.09309 0.920275 -2.01658
v  1.10523 0.920275 -2.08875
v  0.548632 0.920275 -2.08826
v  0.554728 0.920275 -2.16043
v  1.1725e-06 0.920275 -2.11221
v  1.23189e-06 0.920275 -2.18438
v  -0.548629 0.920275 -2.08826
v  -0.554725 0.920275 -2.16043
v  -1.09308 0.920275 -2.01658
v  -1.10523 0.920275 -2.08875
v  -1.62922 0.920275 -1.89772
v  -1.64732 0.920275 -1.96989
v  -2.15296 0.920275 -1.73259
v  -2.17688 0.920275 -1.80476
v  -2.68987 0.920275 -1.59461
v  -2.66031 0.920275 -1.52244
v  2.5703 0.70553 -1.28911
v  2.57032 0.740773 -1.28911
v  2.08012 0.70553 -1.49109
v  2.08013 0.740773 -1.49109
v  1.57412 0.70553 -1.6498
v  1.57411 0.740773 -1.6498
v  1.05613 0.70553 -1.76406
v  1.05611 0.740773 -1.76404
v  0.530086 0.70553 -1.83294
v  0.530073 0.740773 -1.83293
v  1.23773e-05 0.70553 -1.85596
v  9.91701e-07 0.740773 -1.85595
v  -0.530058 0.70553 -1.8329
v  -0.530071 0.740773 -1.83293
v  -1.05609 0.70553 -1.76408
v  -1.05611 0.740773 -1.76404
v  -1.5741 0.70553 -1.64979
v  -1.57411 0.740773 -1.6498
v  -2.08013 0.70553 -1.49106
v  -2.08013 0.740773 -1.49109
v  -2.57033 0.70553 -1.28914
v  -2.57032 0.740773 -1.28911
v  2.6603 0.70553 -1.52244
v  2.15295 0.70553 -1.73259
v  2.66031 0.740773 -1.52244
v  2.15296 0.740773 -1.73259
v  1.62923 0.70553 -1.89772
v  1.62922 0.740773 -1.89772
v  1.0931 0.70553 -2.0166
v  1.09309 0.740773 -2.01658
v  0.548645 0.70553 -2.08827
v  0.548632 0.740773 -2.08826
v  1.29568e-05 0.70553 -2.11222
v  1.1725e-06 0.740773 -2.11221
v  -0.548616 0.70553 -2.08823
v  -0.548629 0.740773 -2.08826
v  -1.09307 0.70553 -2.01663
v  -1.09308 0.740773 -2.01658
v  -1.62921 0.70553 -1.89771
v  -1.62922 0.740773 -1.89772
v  -2.15296 0.70553 -1.73256
v  -2.15296 0.740773 -1.73259
v  -2.66032 0.70553 -1.52247
v  -2.66031 0.740773 -1.52244

# 262 UV coordinates
vt 0.802671 0.55495 0
vt 0.802674 0.657355 0
vt 0.7286 0.55495 0
vt 0.728601 0.657355 0
vt 0.652137 0.55495 0
vt 0.652137 0.657355 0
vt 0.573864 0.55495 0
vt 0.573862 0.657355 0
vt 0.494375 0.55495 0
vt 0.494373 0.657355 0
vt 0.414276 0.55495 0
vt 0.414274 0.657355 0
vt 0.334177 0.55495 0
vt 0.334175 0.657355 0
vt 0.254688 0.55495 0
vt 0.254686 0.657355 0
vt 0.176412 0.55495 0
vt 0.176411 0.657355 0
vt 0.099946 0.55495 0
vt 0.0999466 0.657355 0
vt 0.0258726 0.55495 0
vt 0.0258742 0.657355 0
vt 0.802671 0.552737 0
vt 0.727802 0.552737 0
vt 0.802674 0.450366 0
vt 0.727803 0.450366 0
vt 0.650515 0.552737 0
vt 0.650515 0.450366 0
vt 0.571399 0.552737 0
vt 0.571397 0.450366 0
vt 0.491053 0.552737 0
vt 0.491051 0.450366 0
vt 0.41009 0.552737 0
vt 0.410089 0.450366 0
vt 0.329129 0.552737 0
vt 0.329127 0.450366 0
vt 0.248783 0.552737 0
vt 0.248781 0.450366 0
vt 0.169664 0.552737 0
vt 0.169663 0.450366 0
vt 0.0923738 0.552737 0
vt 0.0923744 0.450366 0
vt 0.0175023 0.552737 0
vt 0.017504 0.450366 0
vt 0.798432 0.33619 0
vt 0.725523 0.300172 0
vt 0.80268 0.323821 0
vt 0.728961 0.287804 0
vt 0.575689 0.77605 0
vt 0.574871 0.760194 0
vt 0.636978 0.760074 0
vt 0.635791 0.743884 0
vt 0.714812 0.250978 0
vt 0.714812 0.238121 0
vt 0.802674 0.250978 0
vt 0.802674 0.238121 0
vt 0.65026 0.271872 0
vt 0.652861 0.259503 0
vt 0.514247 0.788416 0
vt 0.51359 0.772868 0
vt 0.573214 0.251498 0
vt 0.57496 0.239129 0
vt 0.452604 0.797389 0
vt 0.452138 0.782073 0
vt 0.494971 0.239215 0
vt 0.495847 0.226846 0
vt 0.390825 0.802968 0
vt 0.39057 0.787794 0
vt 0.416128 0.222741 0
vt 0.416128 0.23511 0
vt 0.328974 0.80515 0
vt 0.328939 0.790023 0
vt 0.33641 0.226853 0
vt 0.337286 0.239221 0
vt 0.267115 0.803939 0
vt 0.267301 0.788742 0
vt 0.257299 0.239124 0
vt 0.259044 0.251493 0
vt 0.205681 0.783975 0
vt 0.205279 0.799314 0
vt 0.179394 0.259505 0
vt 0.181996 0.271874 0
vt 0.144015 0.775573 0
vt 0.143431 0.791157 0
vt 0.103291 0.287809 0
vt 0.106729 0.300178 0
vt 0.0826398 0.763959 0
vt 0.0819165 0.779765 0
vt 0.0295695 0.323816 0
vt 0.0338169 0.336185 0
vt 0.802674 0.222741 0
vt 0.802674 0.235598 0
vt 0.714812 0.222746 0
vt 0.714812 0.235603 0
vt 0.0217761 0.749132 0
vt 0.0206714 0.765405 0
vt 0.574343 0.752301 0
vt 0.635199 0.736011 0
vt 0.643839 0.733727 0
vt 0.64443 0.741605 0
vt 0.637556 0.767956 0
vt 0.576205 0.783944 0
vt 0.51319 0.764949 0
vt 0.514639 0.796337 0
vt 0.451866 0.774135 0
vt 0.452872 0.805328 0
vt 0.390425 0.779843 0
vt 0.390969 0.810919 0
vt 0.328923 0.782068 0
vt 0.328993 0.813105 0
vt 0.267413 0.780794 0
vt 0.26701 0.811892 0
vt 0.206053 0.776038 0
vt 0.205181 0.807271 0
vt 0.145259 0.760406 0
vt 0.143291 0.806488 0
vt 0.0845479 0.740459 0
vt 0.0809749 0.803424 0
vt 0.0147903 0.723391 0
vt 0.0234417 0.725527 0
vt 0.013128 0.746993 0
vt 0.019098 0.789143 0
vt 0.103298 0.384939 0
vt 0.0295776 0.348922 0
vt 0.106736 0.37257 0
vt 0.0338251 0.336553 0
vt 0.179399 0.41324 0
vt 0.182001 0.400871 0
vt 0.257302 0.433611 0
vt 0.259048 0.421242 0
vt 0.336414 0.445895 0
vt 0.33729 0.433526 0
vt 0.416133 0.450001 0
vt 0.416132 0.437632 0
vt 0.495851 0.445895 0
vt 0.494975 0.433526 0
vt 0.574962 0.433611 0
vt 0.573217 0.421242 0
vt 0.652865 0.41324 0
vt 0.650264 0.400871 0
vt 0.728967 0.384939 0
vt 0.725529 0.37257 0
vt 0.802687 0.348922 0
vt 0.79844 0.336553 0
vt 0.0164026 0.689092 0
vt 0.0732388 0.717155 0
vt 0.013128 0.698836 0
vt 0.070595 0.726897 0
vt 0.131888 0.739141 0
vt 0.129895 0.74888 0
vt 0.191903 0.754882 0
vt 0.190576 0.764618 0
vt 0.252828 0.764258 0
vt 0.252178 0.773991 0
vt 0.314199 0.767198 0
vt 0.314231 0.776928 0
vt 0.37555 0.76368 0
vt 0.376263 0.773406 0
vt 0.436412 0.75373 0
vt 0.437802 0.763453 0
vt 0.496323 0.737424 0
vt 0.49838 0.747144 0
vt 0.554828 0.714886 0
vt 0.557535 0.724602 0
vt 0.61148 0.686288 0
vt 0.614818 0.696001 0
vt 0.604725 0.885872 0
vt 0.600433 0.877124 0
vt 0.549464 0.898635 0
vt 0.54599 0.89007 0
vt 0.49242 0.908671 0
vt 0.489791 0.900253 0
vt 0.434025 0.915903 0
vt 0.432262 0.907596 0
vt 0.374726 0.920269 0
vt 0.373841 0.912042 0
vt 0.31515 0.921745 0
vt 0.314796 0.913558 0
vt 0.255219 0.920314 0
vt 0.256105 0.912131 0
vt 0.195922 0.915992 0
vt 0.197686 0.907774 0
vt 0.137531 0.908803 0
vt 0.14016 0.900519 0
vt 0.0804921 0.898811 0
vt 0.0839661 0.890421 0
vt 0.0252382 0.886089 0
vt 0.0295304 0.877558 0
vt 0.628871 0.804628 0
vt 0.571623 0.822835 0
vt 0.628873 0.804628 0
vt 0.571623 0.822835 0
vt 0.512526 0.837142 0
vt 0.512525 0.837142 0
vt 0.45203 0.847442 0
vt 0.452028 0.84744 0
vt 0.390593 0.853651 0
vt 0.390592 0.85365 0
vt 0.328686 0.855726 0
vt 0.328684 0.855725 0
vt 0.266779 0.853648 0
vt 0.266777 0.85365 0
vt 0.205343 0.847444 0
vt 0.205341 0.84744 0
vt 0.144845 0.837141 0
vt 0.144844 0.837142 0
vt 0.0857452 0.822833 0
vt 0.0857454 0.822835 0
vt 0.0284949 0.80463 0
vt 0.028496 0.804628 0
vt 0.648719 0.686357 0
vt 0.652884 0.686356 0
vt 0.664673 0.719593 0
vt 0.652884 0.719593 0
vt 0.557484 0.867387 0
vt 0.549298 0.849251 0
vt 0.614505 0.851605 0
vt 0.604391 0.834084 0
vt 0.0735403 0.923181 0
vt 0.0165199 0.910089 0
vt 0.0804921 0.898811 0
vt 0.0252381 0.886089 0
vt 0.498621 0.879787 0
vt 0.492427 0.86117 0
vt 0.132402 0.933468 0
vt 0.137531 0.908804 0
vt 0.438365 0.888712 0
vt 0.434209 0.869748 0
vt 0.192657 0.940875 0
vt 0.195922 0.915992 0
vt 0.377173 0.894095 0
vt 0.375087 0.874921 0
vt 0.253848 0.94534 0
vt 0.255219 0.920314 0
vt 0.315513 0.895894 0
vt 0.315513 0.87665 0
vt 0.315509 0.946832 0
vt 0.31515 0.921745 0
vt 0.253852 0.894095 0
vt 0.255938 0.874921 0
vt 0.37717 0.945337 0
vt 0.374726 0.920269 0
vt 0.192661 0.888712 0
vt 0.196816 0.869748 0
vt 0.43836 0.940876 0
vt 0.434025 0.915903 0
vt 0.132404 0.879787 0
vt 0.138598 0.86117 0
vt 0.498618 0.933468 0
vt 0.49242 0.908671 0
vt 0.0735417 0.867386 0
vt 0.0817268 0.849251 0
vt 0.557482 0.923179 0
vt 0.549464 0.898635 0
vt 0.0165202 0.851605 0
vt 0.0266343 0.834084 0
vt 0.644447 0.686358 0
vt 0.648612 0.686354 0
vt 0.644447 0.719595 0
vt 0.664565 0.719591 0
vt 0.614504 0.910091 0
vt 0.604725 0.885872 0

# 221 vertex normals
vn -0.382689 5.90548e-06 0.923877
vn -0.382689 5.90548e-06 0.923877
vn -0.342022 3.23263e-06 0.939692
vn -0.342022 3.23267e-06 0.939692
vn -0.258829 -8.19701e-06 0.965923
vn -0.258828 -8.19714e-06 0.965923
vn -0.173655 -2.27669e-05 0.984806
vn -0.173654 -2.2767e-05 0.984807
vn -0.0871521 -2.37721e-05 0.996195
vn -0.087151 -2.37719e-05 0.996195
vn 1.71747e-05 -1.41883e-06 1
vn 1.82882e-05 -1.41838e-06 1
vn 0.0871393 2.24785e-06 0.996196
vn 0.0871403 2.24753e-06 0.996196
vn 0.17364 -1.7127e-05 0.984809
vn 0.173642 -1.71273e-05 0.984809
vn 0.258848 5.81847e-06 0.965918
vn 0.258848 5.81875e-06 0.965918
vn 0.342 1.38076e-05 0.9397
vn 0.341999 1.38082e-05 0.9397
vn 0.382636 -6.64372e-06 0.923899
vn 0.382636 -6.64372e-06 0.923899
vn 0.379091 -5.99569e-06 -0.925359
vn 0.338696 -3.27503e-06 -0.940896
vn 0.379091 -5.99569e-06 -0.925359
vn 0.338697 -3.27507e-06 -0.940895
vn 0.256172 8.19519e-06 -0.966631
vn 0.256171 8.19532e-06 -0.966631
vn 0.171804 2.27605e-05 -0.985131
vn 0.171803 2.27607e-05 -0.985131
vn 0.0862015 2.37717e-05 -0.996278
vn 0.0862004 2.37715e-05 -0.996278
vn -1.71695e-05 1.42055e-06 -1
vn -1.82817e-05 1.4201e-06 -1
vn -0.0861889 -2.24188e-06 -0.996279
vn -0.0861899 -2.24156e-06 -0.996279
vn -0.171788 1.70773e-05 -0.985134
vn -0.171791 1.70776e-05 -0.985134
vn -0.256191 -5.99686e-06 -0.966626
vn -0.256191 -5.99714e-06 -0.966626
vn -0.338675 -1.41454e-05 -0.940903
vn -0.338674 -1.4146e-05 -0.940904
vn -0.379038 6.24008e-06 -0.925381
vn -0.379038 6.24008e-06 -0.925381
vn 0 -1 1.75565e-07
vn 0 -1 1.75565e-07
vn 0 1 0
vn 0.925388 -2.49536e-05 0.37902
vn 0.925388 -2.49536e-05 0.37902
vn 0.925388 -2.49536e-05 0.37902
vn 0 -1 -1.79634e-07
vn 0 -1 -1.79634e-07
vn 0 1 -7.31644e-07
vn 0 1 -7.18e-07
vn 0 -1 -1.8304e-07
vn 0 1 -7.34199e-07
vn 0 1 -7.40581e-07
vn 0 -1 3.70997e-07
vn 0 -1 3.70997e-07
vn 0 -1 0
vn 0 -1 -3.73582e-07
vn 0.031571 0.99948 -0.00661641
vn 0.0313011 0.999488 -0.00655986
vn 0 -1 -1.83032e-07
vn 0.0662332 0.997663 -0.0167914
vn 0.0661621 0.997669 -0.0167234
vn 0.0340321 0.999372 -0.00990845
vn 0.0352457 0.999326 -0.0102618
vn -0.925389 -1.04853e-06 0.37902
vn -0.925389 -1.04853e-06 0.37902
vn -0.925389 -1.04853e-06 0.37902
vn 8.10896e-07 1 0
vn -0.342019 0 0.939693
vn -0.382682 0 0.92388
vn 0.925388 0 0.379021
vn 0.379084 0 -0.925362
vn -0.258819 0 0.965926
vn 0.297695 0 -0.954661
vn -0.173648 0 0.984808
vn 0.214171 0 -0.976796
vn -0.0871554 0 0.996195
vn 0.129116 0 -0.99163
vn 0 0 1
vn 0.0431406 0 -0.999069
vn 0.0871555 0 0.996195
vn -0.0431407 0 -0.999069
vn 0.181745 0 0.983346
vn 0.182569 0 0.983193
vn -0.129116 0 -0.99163
vn 0.269505 0 0.962999
vn 0.271201 0 0.962523
vn -0.214171 0 -0.976796
vn -0.214171 0 -0.976796
vn 0.346017 0 0.938228
vn 0.346984 0 0.937871
vn -0.297695 0 -0.954661
vn -0.297695 0 -0.954661
vn -0.925389 0 0.379018
vn 0.382683 0 0.92388
vn 0.382683 0 0.92388
vn -0.379085 0 -0.925362
vn -0.379085 0 -0.925362
vn -0.379085 0 -0.925362
vn 0 1 -3.07235e-07
vn 0 1 -3.07235e-07
vn 0 1 -3.07235e-07
vn 0 1 -7.63425e-07
vn 0 1 1.14399e-07
vn 0 1 -4.28968e-07
vn 0 1 2.78456e-07
vn 0 1 2.78456e-07
vn 0 1 2.33489e-07
vn 0 1 2.33489e-07
vn 0 1 4.17374e-07
vn 0 1 -1.60158e-07
vn 0 1 -1.60158e-07
vn 0 1 3.14352e-07
vn 0 1 3.14352e-07
vn 0 1 3.95016e-07
vn 0 1 3.95016e-07
vn 0 -1 -2.24537e-07
vn 0 -1 -2.28798e-07
vn 0 -1 -2.28798e-07
vn 0 -1 -9.73872e-07
vn 0 -1 4.90326e-07
vn 0 -1 4.90326e-07
vn 0 -1 -1.61849e-06
vn 0 -1 -1.61849e-06
vn 0 -1 7.53592e-07
vn 0 -1 7.53592e-07
vn 0 -1 6.7361e-07
vn 0 -1 6.7361e-07
vn 0 -1 2.19454e-07
vn 0 -1 2.19454e-07
vn -0.380976 9.72962e-05 0.924585
vn -0.380976 9.72962e-05 0.924585
vn -0.340434 5.34709e-05 0.940269
vn -0.340443 5.34812e-05 0.940265
vn -0.257568 -0.000130447 0.96626
vn -0.257558 -0.00013048 0.966263
vn -0.172782 -0.00036327 0.98496
vn -0.172763 -0.000363311 0.984963
vn -0.0867072 -0.000379203 0.996234
vn -0.086689 -0.000379171 0.996235
vn 8.83703e-06 -2.1208e-05 1
vn 2.66932e-05 -2.10924e-05 1
vn 0.0866786 3.78062e-05 0.996236
vn 0.0866944 3.7725e-05 0.996235
vn 0.172741 -0.000272904 0.984967
vn 0.172776 -0.000272978 0.984961
vn 0.257579 9.37208e-05 0.966257
vn 0.257585 9.37904e-05 0.966256
vn 0.340426 0.000221007 0.940271
vn 0.340407 0.000221163 0.940278
vn 0.380923 -0.000106867 0.924607
vn 0.380923 -0.000106867 0.924607
vn 0.382689 -9.91873e-05 -0.923877
vn 0.342017 -5.45034e-05 -0.939694
vn 0.382689 -9.91873e-05 -0.923877
vn 0.342027 -5.45144e-05 -0.93969
vn 0.258834 0.000136529 -0.965922
vn 0.258823 0.000136564 -0.965925
vn 0.173665 0.000379881 -0.984805
vn 0.173645 0.000379925 -0.984808
vn 0.0871608 0.000396693 -0.996194
vn 0.087142 0.000396658 -0.996196
vn -8.44802e-06 2.37324e-05 -1
vn -2.70244e-05 2.36079e-05 -1
vn -0.0871313 -3.75332e-05 -0.996197
vn -0.0871478 -3.74455e-05 -0.996195
vn -0.173622 0.00028583 -0.984812
vn -0.17366 0.00028591 -0.984806
vn -0.258845 -9.71491e-05 -0.965919
vn -0.258851 -9.72251e-05 -0.965917
vn -0.34201 -0.000231099 -0.939696
vn -0.341989 -0.000231266 -0.939704
vn -0.382636 0.000109593 -0.923899
vn 0.933011 -0.000412536 0.359848
vn 0.933011 -0.000412536 0.359848
vn 0.933011 -0.000412536 0.359848
vn 0 1 -1.10223e-07
vn 0 1 -1.10223e-07
vn 0 1 -1.10223e-07
vn 0 1 -2.73207e-08
vn 0 -1 1.63928e-07
vn 0 -1 1.63928e-07
vn 0 1 1.35706e-07
vn 0 1 1.35706e-07
vn 0 -1 -1.22137e-07
vn 0 -1 -1.22137e-07
vn 0 1 8.10607e-08
vn 0 1 8.10606e-08
vn 0 -1 1.01325e-07
vn 0 -1 1.01325e-07
vn 0 -1 1.01325e-07
vn 0 1 -8.76176e-08
vn 0 -1 -1.54682e-07
vn 0 -1 -1.54682e-07
vn 0 -1 -1.54682e-07
vn 0 1 1.09129e-07
vn 0 -1 4.1113e-07
vn 0 -1 4.1113e-07
vn 0 -1 4.1113e-07
vn 0 1 1.08081e-07
vn 0 1 1.08081e-07
vn 0 -1 -6.75519e-08
vn 0 -1 -6.75519e-08
vn 0 -1 -6.75519e-08
vn 0 1 -5.42825e-08
vn 0 -1 -1.08561e-07
vn 0 -1 -1.08561e-07
vn 0 1 1.09283e-07
vn 0 1 1.09283e-07
vn 0 -1 -2.1856e-07
vn 0 -1 -2.1856e-07
vn 0 1 5.51118e-08
vn -0.933011 0 0.359849
vn -0.933011 0 0.359849
vn -0.933011 0 0.359849
vn 0 -1 1.10226e-07
vn 0 -1 1.10226e-07

# Mesh 'pCylinder5_pCylinder5' with 252 faces
g pCylinder5_pCylinder5
usemtl lambert1
f  1/1/1 2/2/2 3/3/3
f  3/3/3 2/2/2 4/4/4
f  3/3/3 4/4/4 5/5/5
f  5/5/5 4/4/4 6/6/6
f  5/5/5 6/6/6 7/7/7
f  7/7/7 6/6/6 8/8/8
f  7/7/7 8/8/8 9/9/9
f  9/9/9 8/8/8 10/10/10
f  9/9/9 10/10/10 11/11/11
f  11/11/11 10/10/10 12/12/12
f  11/11/11 12/12/12 13/13/13
f  13/13/13 12/12/12 14/14/14
f  13/13/13 14/14/14 15/15/15
f  15/15/15 14/14/14 16/16/16
f  15/15/15 16/16/16 17/17/17
f  17/17/17 16/16/16 18/18/18
f  17/17/17 18/18/18 19/19/19
f  19/19/19 18/18/18 20/20/20
f  19/19/19 20/20/20 21/21/21
f  21/21/21 20/20/20 22/22/22
f  23/23/23 24/24/24 25/25/25
f  25/25/25 24/24/24 26/26/26
f  24/24/24 27/27/27 26/26/26
f  26/26/26 27/27/27 28/28/28
f  27/27/27 29/29/29 28/28/28
f  28/28/28 29/29/29 30/30/30
f  29/29/29 31/31/31 30/30/30
f  30/30/30 31/31/31 32/32/32
f  31/31/31 33/33/33 32/32/32
f  32/32/32 33/33/33 34/34/34
f  33/33/33 35/35/35 34/34/34
f  34/34/34 35/35/35 36/36/36
f  35/35/35 37/37/37 36/36/36
f  36/36/36 37/37/37 38/38/38
f  37/37/37 39/39/39 38/38/38
f  38/38/38 39/39/39 40/40/40
f  39/39/39 41/41/41 40/40/40
f  40/40/40 41/41/41 42/42/42
f  41/41/41 43/43/43 42/42/42
f  42/42/42 43/43/43 44/44/44
f  1/45/45 3/46/46 23/47/45
f  23/47/45 3/46/46 24/48/46
f  45/49/47 46/50/47 47/51/47
f  47/51/47 46/50/47 48/52/47
f  25/53/48 2/54/49 23/55/50
f  23/55/50 2/54/49 1/56/48
f  3/46/46 5/57/51 24/48/46
f  24/48/46 5/57/51 27/58/52
f  49/59/53 50/60/54 45/49/47
f  45/49/47 50/60/54 46/50/47
f  5/57/51 7/61/55 27/58/52
f  27/58/52 7/61/55 29/62/55
f  51/63/56 52/64/57 49/59/53
f  49/59/53 52/64/57 50/60/54
f  7/61/55 9/65/58 29/62/55
f  29/62/55 9/65/58 31/66/59
f  53/67/47 54/68/47 51/63/56
f  51/63/56 54/68/47 52/64/57
f  31/66/59 9/65/58 33/69/60
f  33/69/60 9/65/58 11/70/60
f  55/71/47 56/72/47 53/67/47
f  53/67/47 56/72/47 54/68/47
f  33/69/60 11/70/60 35/73/61
f  35/73/61 11/70/60 13/74/61
f  57/75/47 58/76/47 55/71/47
f  55/71/47 58/76/47 56/72/47
f  35/73/61 13/74/61 37/77/60
f  37/77/60 13/74/61 15/78/60
f  59/79/62 58/76/47 60/80/63
f  60/80/63 58/76/47 57/75/47
f  37/77/60 15/78/60 39/81/64
f  39/81/64 15/78/60 17/82/64
f  61/83/65 59/79/62 62/84/66
f  62/84/66 59/79/62 60/80/63
f  39/81/64 17/82/64 41/85/60
f  41/85/60 17/82/64 19/86/60
f  63/87/67 61/83/65 64/88/68
f  64/88/68 61/83/65 62/84/66
f  41/85/60 19/86/60 43/89/60
f  43/89/60 19/86/60 21/90/60
f  43/91/69 21/92/70 44/93/71
f  44/93/71 21/92/70 22/94/69
f  65/95/72 63/87/67 66/96/72
f  66/96/72 63/87/67 64/88/68
f  67/97/73 68/98/74 46/50/73
f  46/50/73 68/98/74 48/52/74
f  68/98/75 69/99/75 48/52/75
f  48/52/75 69/99/75 47/100/75
f  69/101/76 70/102/76 47/51/76
f  47/51/76 70/102/76 45/49/76
f  71/103/77 67/97/73 50/60/77
f  50/60/77 67/97/73 46/50/73
f  70/102/78 72/104/78 45/49/78
f  45/49/78 72/104/78 49/59/78
f  73/105/79 71/103/77 52/64/79
f  52/64/79 71/103/77 50/60/77
f  72/104/80 74/106/80 49/59/80
f  49/59/80 74/106/80 51/63/80
f  75/107/81 73/105/79 54/68/81
f  54/68/81 73/105/79 52/64/79
f  74/106/82 76/108/82 51/63/82
f  51/63/82 76/108/82 53/67/82
f  77/109/83 75/107/81 56/72/83
f  56/72/83 75/107/81 54/68/81
f  76/108/84 78/110/84 53/67/84
f  53/67/84 78/110/84 55/71/84
f  79/111/85 77/109/83 58/76/85
f  58/76/85 77/109/83 56/72/83
f  78/110/86 80/112/86 55/71/86
f  55/71/86 80/112/86 57/75/86
f  81/113/87 79/111/85 59/79/88
f  59/79/88 79/111/85 58/76/85
f  80/112/89 82/114/89 57/75/89
f  57/75/89 82/114/89 60/80/89
f  81/113/87 59/79/88 83/115/90
f  83/115/90 59/79/88 61/83/91
f  82/114/92 84/116/92 60/80/93
f  60/80/93 84/116/92 62/84/92
f  83/115/90 61/83/91 85/117/94
f  85/117/94 61/83/91 63/87/95
f  84/116/96 86/118/96 62/84/97
f  62/84/97 86/118/96 64/88/96
f  87/119/98 88/120/98 66/121/98
f  66/121/98 88/120/98 65/95/98
f  88/120/99 85/117/94 65/95/100
f  65/95/100 85/117/94 63/87/95
f  86/118/101 87/122/101 64/88/102
f  64/88/102 87/122/101 66/96/103
f  42/123/104 44/124/105 20/125/106
f  20/125/106 44/124/105 22/126/105
f  40/127/107 42/123/104 18/128/107
f  18/128/107 42/123/104 20/125/106
f  38/129/108 40/127/107 16/130/108
f  16/130/108 40/127/107 18/128/107
f  36/131/109 38/129/108 14/132/109
f  14/132/109 38/129/108 16/130/108
f  34/133/110 36/131/109 12/134/111
f  12/134/111 36/131/109 14/132/109
f  32/135/112 34/133/110 10/136/113
f  10/136/113 34/133/110 12/134/111
f  32/135/112 10/136/113 30/137/114
f  30/137/114 10/136/113 8/138/114
f  30/137/114 8/138/114 28/139/115
f  28/139/115 8/138/114 6/140/116
f  28/139/115 6/140/116 26/141/117
f  26/141/117 6/140/116 4/142/118
f  26/141/117 4/142/118 25/143/119
f  25/143/119 4/142/118 2/144/120
f  68/145/60 67/146/60 69/147/60
f  69/147/60 67/146/60 70/148/60
f  67/146/60 71/149/121 70/148/60
f  70/148/60 71/149/121 72/150/121
f  71/149/121 73/151/122 72/150/121
f  72/150/121 73/151/122 74/152/123
f  73/151/122 75/153/124 74/152/123
f  74/152/123 75/153/124 76/154/124
f  75/153/124 77/155/125 76/154/124
f  76/154/124 77/155/125 78/156/126
f  77/155/125 79/157/127 78/156/126
f  78/156/126 79/157/127 80/158/128
f  81/159/129 82/160/130 79/157/127
f  79/157/127 82/160/130 80/158/128
f  83/161/60 84/162/60 81/159/129
f  81/159/129 84/162/60 82/160/130
f  85/163/131 86/164/132 83/161/60
f  83/161/60 86/164/132 84/162/60
f  88/165/133 87/166/134 85/163/131
f  85/163/131 87/166/134 86/164/132
f  89/167/135 90/168/136 91/169/137
f  91/169/137 90/168/136 92/170/138
f  91/169/137 92/170/138 93/171/139
f  93/171/139 92/170/138 94/172/140
f  93/171/139 94/172/140 95/173/141
f  95/173/141 94/172/140 96/174/142
f  95/173/141 96/174/142 97/175/143
f  97/175/143 96/174/142 98/176/144
f  97/175/143 98/176/144 99/177/145
f  99/177/145 98/176/144 100/178/146
f  99/177/145 100/178/146 101/179/147
f  101/179/147 100/178/146 102/180/148
f  101/179/147 102/180/148 103/181/149
f  103/181/149 102/180/148 104/182/150
f  103/181/149 104/182/150 105/183/151
f  105/183/151 104/182/150 106/184/152
f  105/183/151 106/184/152 107/185/153
f  107/185/153 106/184/152 108/186/154
f  107/185/153 108/186/154 109/187/155
f  109/187/155 108/186/154 110/188/156
f  111/189/157 112/190/158 113/191/159
f  113/191/159 112/190/158 114/192/160
f  112/190/158 115/193/161 114/192/160
f  114/192/160 115/193/161 116/194/162
f  115/193/161 117/195/163 116/194/162
f  116/194/162 117/195/163 118/196/164
f  117/195/163 119/197/165 118/196/164
f  118/196/164 119/197/165 120/198/166
f  119/197/165 121/199/167 120/198/166
f  120/198/166 121/199/167 122/200/168
f  121/199/167 123/201/169 122/200/168
f  122/200/168 123/201/169 124/202/170
f  123/201/169 125/203/171 124/202/170
f  124/202/170 125/203/171 126/204/172
f  125/203/171 127/205/173 126/204/172
f  126/204/172 127/205/173 128/206/174
f  127/205/173 129/207/175 128/206/174
f  128/206/174 129/207/175 130/208/176
f  129/207/175 131/209/177 130/208/176
f  130/208/176 131/209/177 132/210/177
f  111/211/178 113/212/179 89/213/179
f  89/213/179 113/212/179 90/214/180
f  114/215/181 92/216/182 113/217/183
f  113/217/183 92/216/182 90/218/183
f  112/219/60 111/220/60 91/221/60
f  91/221/60 111/220/60 89/222/60
f  116/223/184 94/224/184 114/215/181
f  114/215/181 94/224/184 92/216/182
f  115/225/185 112/219/186 93/226/185
f  93/226/185 112/219/186 91/221/185
f  118/227/187 96/228/188 116/223/184
f  116/223/184 96/228/188 94/224/184
f  117/229/189 115/225/190 95/230/190
f  95/230/190 115/225/190 93/226/189
f  120/231/191 98/232/192 118/227/187
f  118/227/187 98/232/192 96/228/188
f  119/233/193 117/229/194 97/234/195
f  97/234/195 117/229/194 95/230/195
f  122/235/196 100/236/196 120/231/191
f  120/231/191 100/236/196 98/232/192
f  121/237/197 119/233/198 99/238/197
f  99/238/197 119/233/198 97/234/199
f  122/235/196 124/239/200 100/236/196
f  100/236/196 124/239/200 102/240/200
f  121/237/201 99/238/202 123/241/203
f  123/241/203 99/238/202 101/242/202
f  124/239/200 126/243/204 102/240/200
f  102/240/200 126/243/204 104/244/205
f  123/241/206 101/242/207 125/245/208
f  125/245/208 101/242/207 103/246/208
f  126/243/204 128/247/209 104/244/205
f  104/244/205 128/247/209 106/248/209
f  125/245/210 103/246/211 127/249/211
f  127/249/211 103/246/211 105/250/210
f  128/247/209 130/251/212 106/248/209
f  106/248/209 130/251/212 108/252/213
f  127/249/214 105/250/214 129/253/214
f  129/253/214 105/250/214 107/254/215
f  130/251/212 132/255/216 108/252/213
f  108/252/213 132/255/216 110/256/216
f  132/257/217 131/258/218 110/259/217
f  110/259/217 131/258/218 109/260/219
f  129/253/220 107/254/221 131/261/220
f  131/261/220 107/254/221 109/262/221

